<?xml version="1.0" encoding="UTF-8"?>
<svg xmlns="http://www.w3.org/2000/svg" viewBox="0 0 1000 440" font-family="Inter, -apple-system, sans-serif" preserveAspectRatio="xMidYMid meet">
  <rect width="1000" height="440" fill="#f5f2ed"/>

  <text x="40" y="38" font-size="14" font-weight="700" fill="#2b2826">From pixels to a prediction</text>
  <text x="40" y="56" font-size="11" fill="#8a8580">A feed-forward classifier maps an input image through hidden layers to a softmax over digits.</text>

  <!-- ============ INPUT: 8x8 pixel grid showing a stylised "3" ============ -->
  <text x="142" y="153" font-size="10" fill="#8a8580" text-anchor="middle" letter-spacing="1.5" font-weight="600">INPUT</text>

  <!-- 64 cells, dark cells form the digit "3" -->
  <g>
    <rect x="90" y="165" width="13" height="13" fill="#e0dcd6"/>
    <rect x="103" y="165" width="13" height="13" fill="#e0dcd6"/>
    <rect x="116" y="165" width="13" height="13" fill="#e0dcd6"/>
    <rect x="129" y="165" width="13" height="13" fill="#2b2826"/>
    <rect x="142" y="165" width="13" height="13" fill="#2b2826"/>
    <rect x="155" y="165" width="13" height="13" fill="#2b2826"/>
    <rect x="168" y="165" width="13" height="13" fill="#2b2826"/>
    <rect x="181" y="165" width="13" height="13" fill="#e0dcd6"/>
    <rect x="90" y="178" width="13" height="13" fill="#e0dcd6"/>
    <rect x="103" y="178" width="13" height="13" fill="#e0dcd6"/>
    <rect x="116" y="178" width="13" height="13" fill="#e0dcd6"/>
    <rect x="129" y="178" width="13" height="13" fill="#e0dcd6"/>
    <rect x="142" y="178" width="13" height="13" fill="#e0dcd6"/>
    <rect x="155" y="178" width="13" height="13" fill="#e0dcd6"/>
    <rect x="168" y="178" width="13" height="13" fill="#e0dcd6"/>
    <rect x="181" y="178" width="13" height="13" fill="#2b2826"/>
    <rect x="90" y="191" width="13" height="13" fill="#e0dcd6"/>
    <rect x="103" y="191" width="13" height="13" fill="#e0dcd6"/>
    <rect x="116" y="191" width="13" height="13" fill="#e0dcd6"/>
    <rect x="129" y="191" width="13" height="13" fill="#e0dcd6"/>
    <rect x="142" y="191" width="13" height="13" fill="#e0dcd6"/>
    <rect x="155" y="191" width="13" height="13" fill="#e0dcd6"/>
    <rect x="168" y="191" width="13" height="13" fill="#e0dcd6"/>
    <rect x="181" y="191" width="13" height="13" fill="#2b2826"/>
    <rect x="90" y="204" width="13" height="13" fill="#e0dcd6"/>
    <rect x="103" y="204" width="13" height="13" fill="#e0dcd6"/>
    <rect x="116" y="204" width="13" height="13" fill="#e0dcd6"/>
    <rect x="129" y="204" width="13" height="13" fill="#2b2826"/>
    <rect x="142" y="204" width="13" height="13" fill="#2b2826"/>
    <rect x="155" y="204" width="13" height="13" fill="#2b2826"/>
    <rect x="168" y="204" width="13" height="13" fill="#2b2826"/>
    <rect x="181" y="204" width="13" height="13" fill="#e0dcd6"/>
    <rect x="90" y="217" width="13" height="13" fill="#e0dcd6"/>
    <rect x="103" y="217" width="13" height="13" fill="#e0dcd6"/>
    <rect x="116" y="217" width="13" height="13" fill="#e0dcd6"/>
    <rect x="129" y="217" width="13" height="13" fill="#e0dcd6"/>
    <rect x="142" y="217" width="13" height="13" fill="#e0dcd6"/>
    <rect x="155" y="217" width="13" height="13" fill="#e0dcd6"/>
    <rect x="168" y="217" width="13" height="13" fill="#e0dcd6"/>
    <rect x="181" y="217" width="13" height="13" fill="#2b2826"/>
    <rect x="90" y="230" width="13" height="13" fill="#e0dcd6"/>
    <rect x="103" y="230" width="13" height="13" fill="#e0dcd6"/>
    <rect x="116" y="230" width="13" height="13" fill="#e0dcd6"/>
    <rect x="129" y="230" width="13" height="13" fill="#e0dcd6"/>
    <rect x="142" y="230" width="13" height="13" fill="#e0dcd6"/>
    <rect x="155" y="230" width="13" height="13" fill="#e0dcd6"/>
    <rect x="168" y="230" width="13" height="13" fill="#e0dcd6"/>
    <rect x="181" y="230" width="13" height="13" fill="#2b2826"/>
    <rect x="90" y="243" width="13" height="13" fill="#e0dcd6"/>
    <rect x="103" y="243" width="13" height="13" fill="#e0dcd6"/>
    <rect x="116" y="243" width="13" height="13" fill="#2b2826"/>
    <rect x="129" y="243" width="13" height="13" fill="#e0dcd6"/>
    <rect x="142" y="243" width="13" height="13" fill="#e0dcd6"/>
    <rect x="155" y="243" width="13" height="13" fill="#e0dcd6"/>
    <rect x="168" y="243" width="13" height="13" fill="#2b2826"/>
    <rect x="181" y="243" width="13" height="13" fill="#e0dcd6"/>
    <rect x="90" y="256" width="13" height="13" fill="#e0dcd6"/>
    <rect x="103" y="256" width="13" height="13" fill="#e0dcd6"/>
    <rect x="116" y="256" width="13" height="13" fill="#e0dcd6"/>
    <rect x="129" y="256" width="13" height="13" fill="#2b2826"/>
    <rect x="142" y="256" width="13" height="13" fill="#2b2826"/>
    <rect x="155" y="256" width="13" height="13" fill="#2b2826"/>
    <rect x="168" y="256" width="13" height="13" fill="#2b2826"/>
    <rect x="181" y="256" width="13" height="13" fill="#e0dcd6"/>
  </g>
  <rect x="88" y="163" width="108" height="108" fill="none" stroke="#2b2826" stroke-width="1.4"/>
  <text x="142" y="290" font-size="11" fill="#8a8580" text-anchor="middle" font-style="italic">784 pixels</text>

  <!-- Input → Hidden arrow -->
  <line x1="202" y1="217" x2="303" y2="217" stroke="#2b2826" stroke-width="1.2"/>
  <polygon points="305,217 298,214 298,220" fill="#2b2826"/>

  <!-- ============ HIDDEN LAYER 1: 8 circles, vertically centred on the network ============ -->
  <text x="330" y="103" font-size="10" fill="#8a8580" text-anchor="middle" letter-spacing="1.5" font-weight="600">HIDDEN 1</text>

  <circle cx="330" cy="130" r="9" fill="#cfe1e0" stroke="#2b2826" stroke-width="1">
    <animate attributeName="fill" values="#cfe1e0;#cfe1e0;#c03000;#cfe1e0;#cfe1e0"
             keyTimes="0;0.18;0.24;0.34;1" dur="3.5s" repeatCount="indefinite"/>
  </circle>
  <circle cx="330" cy="167" r="9" fill="#cfe1e0" stroke="#2b2826" stroke-width="1">
    <animate attributeName="fill" values="#cfe1e0;#cfe1e0;#c03000;#cfe1e0;#cfe1e0"
             keyTimes="0;0.20;0.26;0.36;1" dur="3.5s" repeatCount="indefinite"/>
  </circle>
  <circle cx="330" cy="204" r="9" fill="#cfe1e0" stroke="#2b2826" stroke-width="1">
    <animate attributeName="fill" values="#cfe1e0;#cfe1e0;#c03000;#cfe1e0;#cfe1e0"
             keyTimes="0;0.22;0.28;0.38;1" dur="3.5s" repeatCount="indefinite"/>
  </circle>
  <circle cx="330" cy="241" r="9" fill="#cfe1e0" stroke="#2b2826" stroke-width="1">
    <animate attributeName="fill" values="#cfe1e0;#cfe1e0;#c03000;#cfe1e0;#cfe1e0"
             keyTimes="0;0.24;0.30;0.40;1" dur="3.5s" repeatCount="indefinite"/>
  </circle>
  <circle cx="330" cy="278" r="9" fill="#cfe1e0" stroke="#2b2826" stroke-width="1">
    <animate attributeName="fill" values="#cfe1e0;#cfe1e0;#c03000;#cfe1e0;#cfe1e0"
             keyTimes="0;0.26;0.32;0.42;1" dur="3.5s" repeatCount="indefinite"/>
  </circle>
  <circle cx="330" cy="315" r="9" fill="#cfe1e0" stroke="#2b2826" stroke-width="1">
    <animate attributeName="fill" values="#cfe1e0;#cfe1e0;#c03000;#cfe1e0;#cfe1e0"
             keyTimes="0;0.28;0.34;0.44;1" dur="3.5s" repeatCount="indefinite"/>
  </circle>
  <circle cx="330" cy="352" r="9" fill="#cfe1e0" stroke="#2b2826" stroke-width="1">
    <animate attributeName="fill" values="#cfe1e0;#cfe1e0;#c03000;#cfe1e0;#cfe1e0"
             keyTimes="0;0.30;0.36;0.46;1" dur="3.5s" repeatCount="indefinite"/>
  </circle>
  <circle cx="330" cy="389" r="9" fill="#cfe1e0" stroke="#2b2826" stroke-width="1">
    <animate attributeName="fill" values="#cfe1e0;#cfe1e0;#c03000;#cfe1e0;#cfe1e0"
             keyTimes="0;0.32;0.38;0.48;1" dur="3.5s" repeatCount="indefinite"/>
  </circle>

  <!-- Input → Hidden 1 fan-out -->
  <g stroke="#8a8580" stroke-width="0.4" opacity="0.28">
    <line x1="305" y1="217" x2="321" y2="130"/>
    <line x1="305" y1="217" x2="321" y2="204"/>
    <line x1="305" y1="217" x2="321" y2="278"/>
    <line x1="305" y1="217" x2="321" y2="352"/>
  </g>

  <!-- ============ HIDDEN LAYER 2 ============ -->
  <text x="510" y="103" font-size="10" fill="#8a8580" text-anchor="middle" letter-spacing="1.5" font-weight="600">HIDDEN 2</text>

  <circle cx="510" cy="130" r="9" fill="#cfe1e0" stroke="#2b2826" stroke-width="1">
    <animate attributeName="fill" values="#cfe1e0;#cfe1e0;#c03000;#cfe1e0;#cfe1e0"
             keyTimes="0;0.42;0.48;0.58;1" dur="3.5s" repeatCount="indefinite"/>
  </circle>
  <circle cx="510" cy="167" r="9" fill="#cfe1e0" stroke="#2b2826" stroke-width="1">
    <animate attributeName="fill" values="#cfe1e0;#cfe1e0;#c03000;#cfe1e0;#cfe1e0"
             keyTimes="0;0.44;0.50;0.60;1" dur="3.5s" repeatCount="indefinite"/>
  </circle>
  <circle cx="510" cy="204" r="9" fill="#cfe1e0" stroke="#2b2826" stroke-width="1">
    <animate attributeName="fill" values="#cfe1e0;#cfe1e0;#c03000;#cfe1e0;#cfe1e0"
             keyTimes="0;0.46;0.52;0.62;1" dur="3.5s" repeatCount="indefinite"/>
  </circle>
  <circle cx="510" cy="241" r="9" fill="#cfe1e0" stroke="#2b2826" stroke-width="1">
    <animate attributeName="fill" values="#cfe1e0;#cfe1e0;#c03000;#cfe1e0;#cfe1e0"
             keyTimes="0;0.48;0.54;0.64;1" dur="3.5s" repeatCount="indefinite"/>
  </circle>
  <circle cx="510" cy="278" r="9" fill="#cfe1e0" stroke="#2b2826" stroke-width="1">
    <animate attributeName="fill" values="#cfe1e0;#cfe1e0;#c03000;#cfe1e0;#cfe1e0"
             keyTimes="0;0.50;0.56;0.66;1" dur="3.5s" repeatCount="indefinite"/>
  </circle>
  <circle cx="510" cy="315" r="9" fill="#cfe1e0" stroke="#2b2826" stroke-width="1">
    <animate attributeName="fill" values="#cfe1e0;#cfe1e0;#c03000;#cfe1e0;#cfe1e0"
             keyTimes="0;0.52;0.58;0.68;1" dur="3.5s" repeatCount="indefinite"/>
  </circle>
  <circle cx="510" cy="352" r="9" fill="#cfe1e0" stroke="#2b2826" stroke-width="1">
    <animate attributeName="fill" values="#cfe1e0;#cfe1e0;#c03000;#cfe1e0;#cfe1e0"
             keyTimes="0;0.54;0.60;0.70;1" dur="3.5s" repeatCount="indefinite"/>
  </circle>
  <circle cx="510" cy="389" r="9" fill="#cfe1e0" stroke="#2b2826" stroke-width="1">
    <animate attributeName="fill" values="#cfe1e0;#cfe1e0;#c03000;#cfe1e0;#cfe1e0"
             keyTimes="0;0.56;0.62;0.72;1" dur="3.5s" repeatCount="indefinite"/>
  </circle>

  <!-- Hidden 1 → Hidden 2 (sparse sample) -->
  <g stroke="#8a8580" stroke-width="0.4" opacity="0.28">
    <line x1="339" y1="130" x2="501" y2="130"/>
    <line x1="339" y1="130" x2="501" y2="204"/>
    <line x1="339" y1="167" x2="501" y2="241"/>
    <line x1="339" y1="204" x2="501" y2="167"/>
    <line x1="339" y1="204" x2="501" y2="278"/>
    <line x1="339" y1="241" x2="501" y2="130"/>
    <line x1="339" y1="241" x2="501" y2="315"/>
    <line x1="339" y1="278" x2="501" y2="241"/>
    <line x1="339" y1="278" x2="501" y2="352"/>
    <line x1="339" y1="315" x2="501" y2="204"/>
    <line x1="339" y1="315" x2="501" y2="389"/>
    <line x1="339" y1="352" x2="501" y2="278"/>
    <line x1="339" y1="389" x2="501" y2="389"/>
  </g>

  <!-- ============ OUTPUT LAYER: 10 circles, digits 0–9 ============ -->
  <text x="720" y="103" font-size="10" fill="#8a8580" letter-spacing="1.5" font-weight="600">OUTPUT  ·  softmax</text>

  <circle cx="700" cy="125" r="9" fill="#cfe1d0" stroke="#2b2826" stroke-width="1"/>
  <text x="700" y="129" font-size="11" fill="#2b2826" text-anchor="middle">0</text>
  <text x="724" y="129" font-size="11" font-family="IBM Plex Mono, monospace" fill="#8a8580">0.07</text>

  <circle cx="700" cy="154" r="9" fill="#cfe1d0" stroke="#2b2826" stroke-width="1"/>
  <text x="700" y="158" font-size="11" fill="#2b2826" text-anchor="middle">1</text>
  <text x="724" y="158" font-size="11" font-family="IBM Plex Mono, monospace" fill="#8a8580">0.05</text>

  <circle cx="700" cy="183" r="9" fill="#cfe1d0" stroke="#2b2826" stroke-width="1"/>
  <text x="700" y="187" font-size="11" fill="#2b2826" text-anchor="middle">2</text>
  <text x="724" y="187" font-size="11" font-family="IBM Plex Mono, monospace" fill="#8a8580">0.08</text>

  <!-- Predicted "3" with pulse animation -->
  <circle cx="700" cy="215" r="12" fill="#c03000" stroke="#c03000" stroke-width="1.8">
    <animate attributeName="r" values="12;12;19;12;12"
             keyTimes="0;0.68;0.76;0.86;1" dur="3.5s" repeatCount="indefinite"/>
  </circle>
  <text x="700" y="219" font-size="12" fill="#f5f2ed" text-anchor="middle" font-weight="700">3</text>
  <text x="724" y="219" font-size="11" font-family="IBM Plex Mono, monospace" fill="#c03000" font-weight="700">0.34</text>

  <circle cx="700" cy="244" r="9" fill="#cfe1d0" stroke="#2b2826" stroke-width="1"/>
  <text x="700" y="248" font-size="11" fill="#2b2826" text-anchor="middle">4</text>
  <text x="724" y="248" font-size="11" font-family="IBM Plex Mono, monospace" fill="#8a8580">0.06</text>

  <circle cx="700" cy="273" r="9" fill="#cfe1d0" stroke="#2b2826" stroke-width="1"/>
  <text x="700" y="277" font-size="11" fill="#2b2826" text-anchor="middle">5</text>
  <text x="724" y="277" font-size="11" font-family="IBM Plex Mono, monospace" fill="#8a8580">0.21</text>

  <circle cx="700" cy="302" r="9" fill="#cfe1d0" stroke="#2b2826" stroke-width="1"/>
  <text x="700" y="306" font-size="11" fill="#2b2826" text-anchor="middle">6</text>
  <text x="724" y="306" font-size="11" font-family="IBM Plex Mono, monospace" fill="#8a8580">0.04</text>

  <circle cx="700" cy="331" r="9" fill="#cfe1d0" stroke="#2b2826" stroke-width="1"/>
  <text x="700" y="335" font-size="11" fill="#2b2826" text-anchor="middle">7</text>
  <text x="724" y="335" font-size="11" font-family="IBM Plex Mono, monospace" fill="#8a8580">0.05</text>

  <circle cx="700" cy="360" r="9" fill="#cfe1d0" stroke="#2b2826" stroke-width="1"/>
  <text x="700" y="364" font-size="11" fill="#2b2826" text-anchor="middle">8</text>
  <text x="724" y="364" font-size="11" font-family="IBM Plex Mono, monospace" fill="#8a8580">0.07</text>

  <circle cx="700" cy="389" r="9" fill="#cfe1d0" stroke="#2b2826" stroke-width="1"/>
  <text x="700" y="393" font-size="11" fill="#2b2826" text-anchor="middle">9</text>
  <text x="724" y="393" font-size="11" font-family="IBM Plex Mono, monospace" fill="#8a8580">0.03</text>

  <!-- Hidden 2 → Output (only the strong path emphasised) -->
  <g stroke="#8a8580" stroke-width="0.4" opacity="0.28">
    <line x1="519" y1="130" x2="688" y2="125"/>
    <line x1="519" y1="167" x2="688" y2="154"/>
    <line x1="519" y1="204" x2="688" y2="183"/>
    <line x1="519" y1="241" x2="688" y2="244"/>
    <line x1="519" y1="278" x2="688" y2="273"/>
    <line x1="519" y1="315" x2="688" y2="302"/>
    <line x1="519" y1="352" x2="688" y2="331"/>
    <line x1="519" y1="389" x2="688" y2="389"/>
  </g>
  <!-- Strong path to the "3" -->
  <g stroke="#c03000" stroke-width="0.7" opacity="0">
    <line x1="519" y1="204" x2="688" y2="215">
      <animate attributeName="opacity" values="0;0;0.85;0;0" keyTimes="0;0.60;0.70;0.82;1" dur="3.5s" repeatCount="indefinite"/>
    </line>
    <line x1="519" y1="241" x2="688" y2="215">
      <animate attributeName="opacity" values="0;0;0.85;0;0" keyTimes="0;0.60;0.70;0.82;1" dur="3.5s" repeatCount="indefinite"/>
    </line>
    <line x1="519" y1="278" x2="688" y2="215">
      <animate attributeName="opacity" values="0;0;0.85;0;0" keyTimes="0;0.60;0.70;0.82;1" dur="3.5s" repeatCount="indefinite"/>
    </line>
  </g>

  <!-- Prediction marker -->
  <line x1="775" y1="215" x2="825" y2="215" stroke="#c03000" stroke-width="1.5"/>
  <polygon points="827,215 818,212 818,218" fill="#c03000"/>
  <text x="838" y="206" font-size="13" fill="#c03000" font-weight="700">prediction</text>
  <text x="838" y="222" font-size="13" fill="#c03000" font-weight="700">"3"</text>

  <text x="500" y="418" font-size="11" fill="#8a8580" text-anchor="middle" font-style="italic">In practice MNIST-class networks have 13,000+ trainable weights; modern LLMs have hundreds of billions.</text>
</svg>
